<svg width="184" height="38" viewBox="0 0 184 38" fill="none" xmlns="http://www.w3.org/2000/svg">
<rect width="38" height="38" rx="8" fill="url(#paint0_linear_4019_858)"/>
<path fill-rule="evenodd" clip-rule="evenodd" d="M20.6425 31.5C21.35 31.5 21.9763 31.5025 22.5738 31.2975C23.17 31.0925 23.665 30.7062 24.2225 30.2725L24.335 30.1838L29.0875 26.4875L29.25 26.3625C30.035 25.7537 30.7337 25.2125 31.1187 24.425C31.5037 23.6375 31.5025 22.7538 31.5 21.76V12.6675C31.5 11.56 31.5 10.605 31.3975 9.84C31.2875 9.02125 31.0388 8.235 30.4013 7.59875C29.7638 6.96125 28.9787 6.7125 28.16 6.6025C27.395 6.5 26.44 6.5 25.3325 6.5H12.6675C11.56 6.5 10.605 6.5 9.84 6.6025C9.02125 6.7125 8.235 6.96125 7.59875 7.59875C6.96125 8.23625 6.7125 9.02125 6.6025 9.84C6.5 10.605 6.5 11.56 6.5 12.6675V25.3325C6.5 26.44 6.5 27.395 6.6025 28.16C6.7125 28.9787 6.96125 29.765 7.59875 30.4013C8.23625 31.0388 9.02125 31.2875 9.84 31.3975C10.605 31.5 11.56 31.5 12.6675 31.5H20.6425ZM26.5 19C26.5 18.6685 26.3683 18.3505 26.1339 18.1161C25.8995 17.8817 25.5815 17.75 25.25 17.75H19.41C18.4938 17.75 17.75 18.4938 17.75 19.41V25.25C17.75 25.5815 17.8817 25.8995 18.1161 26.1339C18.3505 26.3683 18.6685 26.5 19 26.5C19.3315 26.5 19.6495 26.3683 19.8839 26.1339C20.1183 25.8995 20.25 25.5815 20.25 25.25V20.25H25.25C25.5815 20.25 25.8995 20.1183 26.1339 19.8839C26.3683 19.6495 26.5 19.3315 26.5 19Z" fill="#FAFAFA"/>
<path d="M53.296 28.12C52.144 28.12 51.16 27.984 50.344 27.712C49.544 27.424 48.872 27.064 48.328 26.632C47.8 26.184 47.376 25.72 47.056 25.24C46.736 24.744 46.496 24.28 46.336 23.848C46.192 23.4 46.096 23.04 46.048 22.768C46.016 22.48 46 22.336 46 22.336H49.744C49.744 22.336 49.776 22.472 49.84 22.744C49.92 23.016 50.08 23.336 50.32 23.704C50.56 24.056 50.928 24.368 51.424 24.64C51.92 24.896 52.592 25.024 53.44 25.024C54.48 25.024 55.248 24.808 55.744 24.376C56.24 23.928 56.488 23.4 56.488 22.792C56.488 22.248 56.296 21.816 55.912 21.496C55.544 21.176 54.968 20.936 54.184 20.776L51.808 20.32C50.848 20.144 49.952 19.864 49.12 19.48C48.304 19.096 47.64 18.568 47.128 17.896C46.616 17.208 46.36 16.328 46.36 15.256C46.36 14.168 46.632 13.224 47.176 12.424C47.72 11.608 48.48 10.984 49.456 10.552C50.448 10.104 51.608 9.88 52.936 9.88C54.184 9.88 55.216 10.064 56.032 10.432C56.864 10.784 57.52 11.224 58 11.752C58.496 12.264 58.856 12.784 59.08 13.312C59.32 13.84 59.472 14.28 59.536 14.632C59.616 14.984 59.656 15.16 59.656 15.16H56.008C56.008 15.16 55.976 15.048 55.912 14.824C55.864 14.6 55.736 14.344 55.528 14.056C55.32 13.768 55 13.512 54.568 13.288C54.152 13.064 53.576 12.952 52.84 12.952C51.832 12.952 51.104 13.176 50.656 13.624C50.208 14.056 49.984 14.528 49.984 15.04C49.984 15.568 50.208 15.976 50.656 16.264C51.104 16.552 51.688 16.768 52.408 16.912L54.928 17.416C55.888 17.592 56.768 17.888 57.568 18.304C58.368 18.72 59 19.28 59.464 19.984C59.944 20.672 60.184 21.528 60.184 22.552C60.184 23.608 59.92 24.56 59.392 25.408C58.864 26.24 58.088 26.904 57.064 27.4C56.04 27.88 54.784 28.12 53.296 28.12Z" fill="#E7E7E7"/>
<path d="M61.6964 27.88V15.16H65.3444V16.888H65.4644C65.7364 16.424 66.1444 15.984 66.6884 15.568C67.2324 15.136 67.9764 14.92 68.9204 14.92C69.8804 14.92 70.6484 15.144 71.2244 15.592C71.8164 16.04 72.2484 16.592 72.5204 17.248H72.5684C72.7764 16.88 73.0484 16.52 73.3844 16.168C73.7364 15.8 74.1684 15.504 74.6804 15.28C75.2084 15.04 75.8244 14.92 76.5284 14.92C77.4084 14.92 78.1364 15.12 78.7124 15.52C79.2884 15.92 79.7124 16.448 79.9844 17.104C80.2724 17.744 80.4164 18.432 80.4164 19.168V27.88H76.7684V20.08C76.7684 19.456 76.6084 18.944 76.2884 18.544C75.9844 18.128 75.5204 17.92 74.8964 17.92C74.4164 17.92 74.0244 18.04 73.7204 18.28C73.4324 18.52 73.2164 18.832 73.0724 19.216C72.9444 19.584 72.8804 19.968 72.8804 20.368V27.88H69.2324V20.08C69.2324 19.456 69.0724 18.944 68.7524 18.544C68.4484 18.128 67.9844 17.92 67.3604 17.92C66.8804 17.92 66.4884 18.04 66.1844 18.28C65.8964 18.52 65.6804 18.832 65.5364 19.216C65.4084 19.584 65.3444 19.968 65.3444 20.368V27.88H61.6964Z" fill="#E7E7E7"/>
<path d="M87.7754 14.92C88.5914 14.92 89.2634 15.056 89.7914 15.328C90.3194 15.584 90.7194 15.864 90.9914 16.168C91.2794 16.472 91.4554 16.68 91.5194 16.792H91.7114V15.16H95.3594V27.88H91.7114V26.248H91.5194C91.4554 26.36 91.2794 26.568 90.9914 26.872C90.7194 27.176 90.3194 27.464 89.7914 27.736C89.2634 27.992 88.5914 28.12 87.7754 28.12C86.8314 28.12 86.0074 27.936 85.3034 27.568C84.6154 27.184 84.0394 26.68 83.5754 26.056C83.1114 25.416 82.7594 24.704 82.5194 23.92C82.2954 23.136 82.1834 22.336 82.1834 21.52C82.1834 20.704 82.2954 19.904 82.5194 19.12C82.7594 18.336 83.1114 17.632 83.5754 17.008C84.0394 16.368 84.6154 15.864 85.3034 15.496C86.0074 15.112 86.8314 14.92 87.7754 14.92ZM88.8314 17.872C88.1754 17.872 87.6234 18.056 87.1754 18.424C86.7434 18.776 86.4154 19.232 86.1914 19.792C85.9834 20.352 85.8794 20.928 85.8794 21.52C85.8794 22.112 85.9834 22.688 86.1914 23.248C86.4154 23.808 86.7434 24.272 87.1754 24.64C87.6234 24.992 88.1754 25.168 88.8314 25.168C89.4874 25.168 90.0314 24.992 90.4634 24.64C90.9114 24.272 91.2394 23.808 91.4474 23.248C91.6714 22.688 91.7834 22.112 91.7834 21.52C91.7834 20.928 91.6714 20.352 91.4474 19.792C91.2394 19.232 90.9114 18.776 90.4634 18.424C90.0314 18.056 89.4874 17.872 88.8314 17.872Z" fill="#E7E7E7"/>
<path d="M97.4282 27.88V15.16H101.052V17.008H101.172C101.316 16.672 101.516 16.344 101.772 16.024C102.028 15.704 102.38 15.44 102.828 15.232C103.276 15.024 103.852 14.92 104.556 14.92C104.908 14.92 105.188 14.944 105.396 14.992C105.604 15.024 105.708 15.04 105.708 15.04V18.64C105.708 18.64 105.588 18.616 105.348 18.568C105.124 18.52 104.828 18.496 104.46 18.496C103.324 18.496 102.476 18.808 101.916 19.432C101.356 20.04 101.076 21.04 101.076 22.432V27.88H97.4282Z" fill="#E7E7E7"/>
<path d="M113.066 28.12C112.074 28.12 111.282 27.976 110.69 27.688C110.098 27.384 109.65 27.008 109.346 26.56C109.042 26.096 108.842 25.608 108.746 25.096C108.65 24.584 108.602 24.112 108.602 23.68V18.064H106.442V15.16H108.602V12.016H112.25V15.16H114.962V18.064H112.25V23.584C112.25 24.112 112.386 24.52 112.658 24.808C112.946 25.096 113.418 25.24 114.074 25.24C114.362 25.24 114.626 25.216 114.866 25.168C115.106 25.12 115.226 25.096 115.226 25.096V27.904C115.226 27.904 115.01 27.936 114.578 28C114.146 28.08 113.642 28.12 113.066 28.12Z" fill="#E7E7E7"/>
<path d="M117.181 27.88V10.12H120.565L128.221 21.448V10.12H131.893V27.88H128.461L120.853 16.864V27.88H117.181Z" fill="#E7E7E7"/>
<path d="M140.561 28.12C139.137 28.12 137.929 27.816 136.937 27.208C135.945 26.584 135.185 25.776 134.657 24.784C134.145 23.776 133.889 22.688 133.889 21.52C133.889 20.352 134.145 19.272 134.657 18.28C135.185 17.272 135.945 16.464 136.937 15.856C137.929 15.232 139.137 14.92 140.561 14.92C141.985 14.92 143.193 15.232 144.185 15.856C145.177 16.464 145.929 17.272 146.441 18.28C146.969 19.272 147.233 20.352 147.233 21.52C147.233 22.688 146.969 23.776 146.441 24.784C145.929 25.776 145.177 26.584 144.185 27.208C143.193 27.816 141.985 28.12 140.561 28.12ZM140.561 25.144C141.201 25.144 141.737 24.976 142.169 24.64C142.617 24.304 142.961 23.864 143.201 23.32C143.441 22.76 143.561 22.16 143.561 21.52C143.561 20.864 143.441 20.264 143.201 19.72C142.961 19.176 142.617 18.736 142.169 18.4C141.737 18.064 141.201 17.896 140.561 17.896C139.921 17.896 139.377 18.064 138.929 18.4C138.481 18.736 138.137 19.176 137.897 19.72C137.673 20.264 137.561 20.864 137.561 21.52C137.561 22.16 137.673 22.76 137.897 23.32C138.137 23.864 138.481 24.304 138.929 24.64C139.377 24.976 139.921 25.144 140.561 25.144Z" fill="#E7E7E7"/>
<path d="M154.828 28.12C153.836 28.12 153.044 27.976 152.452 27.688C151.86 27.384 151.412 27.008 151.108 26.56C150.804 26.096 150.604 25.608 150.508 25.096C150.412 24.584 150.364 24.112 150.364 23.68V18.064H148.204V15.16H150.364V12.016H154.012V15.16H156.724V18.064H154.012V23.584C154.012 24.112 154.148 24.52 154.42 24.808C154.708 25.096 155.18 25.24 155.836 25.24C156.124 25.24 156.388 25.216 156.628 25.168C156.868 25.12 156.988 25.096 156.988 25.096V27.904C156.988 27.904 156.772 27.936 156.34 28C155.908 28.08 155.404 28.12 154.828 28.12Z" fill="#E7E7E7"/>
<path d="M164.852 28.12C163.732 28.12 162.764 27.936 161.948 27.568C161.132 27.184 160.46 26.68 159.932 26.056C159.404 25.416 159.004 24.704 158.732 23.92C158.476 23.136 158.348 22.328 158.348 21.496C158.348 20.696 158.468 19.912 158.708 19.144C158.964 18.36 159.348 17.648 159.86 17.008C160.388 16.368 161.052 15.864 161.852 15.496C162.668 15.112 163.628 14.92 164.732 14.92C165.9 14.92 166.932 15.176 167.828 15.688C168.74 16.2 169.452 16.96 169.964 17.968C170.476 18.96 170.732 20.168 170.732 21.592V22.48H162.02C162.068 23.248 162.332 23.912 162.812 24.472C163.308 25.032 163.988 25.312 164.852 25.312C165.348 25.312 165.748 25.24 166.052 25.096C166.372 24.936 166.62 24.76 166.796 24.568C166.972 24.36 167.092 24.176 167.156 24.016C167.22 23.856 167.252 23.776 167.252 23.776H170.612C170.612 23.776 170.572 23.928 170.492 24.232C170.428 24.52 170.284 24.88 170.06 25.312C169.836 25.744 169.508 26.176 169.076 26.608C168.66 27.04 168.108 27.4 167.42 27.688C166.732 27.976 165.876 28.12 164.852 28.12ZM162.02 20.272H167.228C167.18 19.392 166.916 18.736 166.436 18.304C165.956 17.872 165.364 17.656 164.66 17.656C163.956 17.656 163.356 17.888 162.86 18.352C162.364 18.8 162.084 19.44 162.02 20.272Z" fill="#E7E7E7"/>
<path d="M177.984 28.12C176.928 28.12 176.056 27.976 175.368 27.688C174.68 27.4 174.128 27.048 173.712 26.632C173.312 26.2 173.008 25.776 172.8 25.36C172.608 24.928 172.48 24.568 172.416 24.28C172.368 23.992 172.344 23.848 172.344 23.848H175.728C175.728 23.848 175.752 23.928 175.8 24.088C175.848 24.248 175.952 24.432 176.112 24.64C176.288 24.848 176.536 25.032 176.856 25.192C177.176 25.352 177.608 25.432 178.152 25.432C178.824 25.432 179.28 25.296 179.52 25.024C179.776 24.752 179.904 24.48 179.904 24.208C179.904 23.632 179.432 23.248 178.488 23.056L176.76 22.72C176.024 22.576 175.328 22.368 174.672 22.096C174.032 21.808 173.512 21.416 173.112 20.92C172.728 20.408 172.536 19.752 172.536 18.952C172.536 18.184 172.736 17.496 173.136 16.888C173.536 16.28 174.104 15.8 174.84 15.448C175.592 15.096 176.488 14.92 177.528 14.92C178.504 14.92 179.312 15.056 179.952 15.328C180.608 15.584 181.128 15.912 181.512 16.312C181.896 16.696 182.184 17.088 182.376 17.488C182.568 17.872 182.688 18.2 182.736 18.472C182.8 18.728 182.832 18.856 182.832 18.856H179.568C179.568 18.856 179.52 18.752 179.424 18.544C179.328 18.32 179.128 18.104 178.824 17.896C178.536 17.672 178.088 17.56 177.48 17.56C176.856 17.56 176.424 17.688 176.184 17.944C175.944 18.184 175.824 18.44 175.824 18.712C175.824 19.032 175.96 19.272 176.232 19.432C176.52 19.592 176.888 19.72 177.336 19.816L178.992 20.152C180.208 20.392 181.208 20.816 181.992 21.424C182.776 22.016 183.168 22.88 183.168 24.016C183.168 24.784 182.968 25.48 182.568 26.104C182.168 26.728 181.584 27.224 180.816 27.592C180.048 27.944 179.104 28.12 177.984 28.12Z" fill="#E7E7E7"/>
<defs>
<linearGradient id="paint0_linear_4019_858" x1="38" y1="0" x2="-16.004" y2="39.141" gradientUnits="userSpaceOnUse">
<stop stop-color="#AAD9D1"/>
<stop offset="1" stop-color="#017373"/>
</linearGradient>
</defs>
</svg>
