<svg width="71" height="16" viewBox="0 0 71 16" fill="none" xmlns="http://www.w3.org/2000/svg">
<g clip-path="url(#clip0_4031_2027)">
<path fill-rule="evenodd" clip-rule="evenodd" d="M6.5 11.2C5.96957 11.2 5.46086 10.9893 5.08579 10.6142C4.71071 10.2391 4.5 9.73043 4.5 9.2V0H0.5V9.2C0.5 12.5136 3.1864 15.2 6.5 15.2H10.9V11.2H6.5ZM18.5 4C18.0272 4 17.5591 4.09312 17.1223 4.27403C16.6856 4.45495 16.2887 4.72012 15.9544 5.05442C15.6201 5.38871 15.355 5.78557 15.174 6.22234C14.9931 6.65911 14.9 7.12724 14.9 7.6C14.9 8.07276 14.9931 8.54089 15.174 8.97766C15.355 9.41443 15.6201 9.81129 15.9544 10.1456C16.2887 10.4799 16.6856 10.745 17.1223 10.926C17.5591 11.1069 18.0272 11.2 18.5 11.2C19.4548 11.2 20.3705 10.8207 21.0456 10.1456C21.7207 9.47045 22.1 8.55478 22.1 7.6C22.1 6.64522 21.7207 5.72955 21.0456 5.05442C20.3705 4.37928 19.4548 4 18.5 4ZM10.9 7.6C10.9 3.4028 14.3028 0 18.5 0C22.6972 0 26.1 3.4028 26.1 7.6C26.1 11.7972 22.6972 15.2 18.5 15.2C14.3028 15.2 10.9 11.7972 10.9 7.6ZM61.7 4C60.7452 4 59.8295 4.37928 59.1544 5.05442C58.4793 5.72955 58.1 6.64522 58.1 7.6C58.1 8.55478 58.4793 9.47045 59.1544 10.1456C59.8295 10.8207 60.7452 11.2 61.7 11.2C62.6548 11.2 63.5705 10.8207 64.2456 10.1456C64.9207 9.47045 65.3 8.55478 65.3 7.6C65.3 6.64522 64.9207 5.72955 64.2456 5.05442C63.5705 4.37928 62.6548 4 61.7 4ZM54.1 7.6C54.1 3.4028 57.5028 0 61.7 0C65.8972 0 69.3 3.4028 69.3 7.6C69.3 11.7972 65.8972 15.2 61.7 15.2C57.5028 15.2 54.1 11.7972 54.1 7.6ZM34.5 0C30.3028 0 26.9 3.4028 26.9 7.6C26.9 11.7972 30.3028 15.2 34.5 15.2H45.7C46.4876 15.2 47.2472 15.08 47.9616 14.8576L50.1 16L52.4072 11.6784C52.9933 10.5783 53.2999 9.35091 53.3 8.1044V7.6C53.3 3.4028 49.8972 0 45.7 0H34.5ZM49.3 7.6C49.3 6.64522 48.9207 5.72955 48.2456 5.05442C47.5705 4.37928 46.6548 4 45.7 4H34.5C34.0272 4 33.5591 4.09312 33.1223 4.27403C32.6856 4.45495 32.2887 4.72012 31.9544 5.05442C31.6201 5.38871 31.3549 5.78557 31.174 6.22234C30.9931 6.65911 30.9 7.12724 30.9 7.6C30.9 8.07276 30.9931 8.54089 31.174 8.97766C31.3549 9.41443 31.6201 9.81129 31.9544 10.1456C32.2887 10.4799 32.6856 10.745 33.1223 10.926C33.5591 11.1069 34.0272 11.2 34.5 11.2H45.7C46.6499 11.2 47.5614 10.8246 48.2357 10.1555C48.9101 9.48642 49.2926 8.57792 49.3 7.628V7.6Z" fill="#AAD9D1"/>
<path d="M70.9 1C70.9 1.26522 70.7946 1.51957 70.6071 1.70711C70.4196 1.89464 70.1652 2 69.9 2C69.6348 2 69.3804 1.89464 69.1929 1.70711C69.0054 1.51957 68.9 1.26522 68.9 1C68.9 0.734784 69.0054 0.48043 69.1929 0.292893C69.3804 0.105357 69.6348 0 69.9 0C70.1652 0 70.4196 0.105357 70.6071 0.292893C70.7946 0.48043 70.9 0.734784 70.9 1Z" fill="#AAD9D1"/>
</g>
<defs>
<clipPath id="clip0_4031_2027">
<rect width="70.4" height="16" fill="white" transform="translate(0.5)"/>
</clipPath>
</defs>
</svg>
